<svg width="26" height="32" viewBox="0 0 26 32" fill="none" xmlns="http://www.w3.org/2000/svg">
<g clip-path="url(#clip0_160_37)">
<path fill-rule="evenodd" clip-rule="evenodd" d="M5.34922 3.29278L3.38075 4.34055C3.93283 5.37774 4.54993 7.27463 4.46774 9.36168C4.38811 11.3844 3.65984 13.5638 1.54897 15.4189L4.1895 18.4235C6.38753 16.4918 7.57656 14.2541 8.11335 12.0517L18.2888 29.6762L21.7529 27.6762L11.5924 10.0776C13.7592 10.7034 16.2776 10.7858 19.0327 9.8538L17.7509 6.06473C15.0888 6.96527 12.8374 6.50627 11.0457 5.56387C9.19721 4.59151 7.86303 3.10863 7.24082 2.11193L5.34922 3.29278Z" fill="#202020"/>
<mask id="mask0_160_37" style="mask-type:luminance" maskUnits="userSpaceOnUse" x="-5" y="-4" width="36" height="40">
<path d="M14.036 -3.52002L-4.80005 7.35498L11.325 35.2843L30.161 24.4093L14.036 -3.52002Z" fill="white"/>
<path fill-rule="evenodd" clip-rule="evenodd" d="M5.3884 3.29352L3.41993 4.34128C3.97202 5.37847 4.58911 7.27536 4.50693 9.36241C4.42729 11.3852 3.69903 13.5645 1.58815 15.4196L4.22869 18.4242C6.42671 16.4925 7.61574 14.2548 8.15253 12.0524L18.328 29.6769L21.7921 27.6769L11.6316 10.0784C13.7984 10.7042 16.3168 10.7865 19.0718 9.85454L17.7901 6.06547C15.128 6.966 12.8765 6.507 11.0849 5.5646C9.2364 4.59225 7.90221 3.10937 7.28 2.11267L5.3884 3.29352Z" fill="#FFFEF4"/>
</mask>
<g mask="url(#mask0_160_37)">
<path d="M5.38834 3.29349L5.97566 4.39691L6.01372 4.37667L6.05027 4.35384L5.38834 3.29349ZM3.41987 4.34125L2.83257 3.23781L1.72912 3.82514L2.31645 4.92856L3.41987 4.34125ZM1.58809 15.4196L0.76292 14.4807L-0.176013 15.3058L0.649155 16.2448L1.58809 15.4196ZM4.22863 18.4242L3.28967 19.2494L4.11484 20.1883L5.05377 19.3632L4.22863 18.4242ZM8.15247 12.0524L9.235 11.4274L7.67624 8.72754L6.93801 11.7564L8.15247 12.0524ZM18.328 29.6769L17.2454 30.3019L17.8704 31.3844L18.953 30.7594L18.328 29.6769ZM21.7921 27.6769L22.4171 28.7594L23.4996 28.1344L22.8746 27.0519L21.7921 27.6769ZM11.6315 10.0783L11.9784 8.87743L8.99783 8.0166L10.549 10.7033L11.6315 10.0783ZM19.0718 9.8545L19.4723 11.0386L20.6563 10.6381L20.2559 9.45395L19.0718 9.8545ZM17.79 6.06543L18.9741 5.66486L18.5734 4.48086L17.3895 4.8813L17.79 6.06543ZM7.27994 2.11263L8.34028 1.4507L7.67835 0.39035L6.61801 1.05228L7.27994 2.11263ZM4.80102 2.19006L2.83257 3.23781L4.00719 5.44467L5.97566 4.39691L4.80102 2.19006ZM2.31645 4.92856C2.77836 5.79636 3.33019 7.47527 3.25784 9.3132L5.75591 9.41154C5.84788 7.07537 5.16555 4.9605 4.52331 3.75392L2.31645 4.92856ZM3.25784 9.3132C3.18963 11.0458 2.58007 12.8837 0.76292 14.4807L2.41326 16.3585C4.81789 14.2453 5.66483 11.7246 5.75591 9.41154L3.25784 9.3132ZM0.649155 16.2448L3.28967 19.2494L5.16756 17.599L2.52702 14.5944L0.649155 16.2448ZM5.05377 19.3632C7.45553 17.2524 8.77297 14.7853 9.36693 12.3484L6.93801 11.7564C6.45838 13.7243 5.39781 15.7326 3.40346 17.4853L5.05377 19.3632ZM19.4105 29.0519L9.235 11.4274L7.06994 12.6774L17.2454 30.3019L19.4105 29.0519ZM21.1671 26.5943L17.703 28.5943L18.953 30.7594L22.4171 28.7594L21.1671 26.5943ZM10.549 10.7033L20.7095 28.3019L22.8746 27.0519L12.7141 9.45334L10.549 10.7033ZM18.6712 8.67042C16.1714 9.51611 13.9143 9.43655 11.9784 8.87743L11.2847 11.2793C13.6824 11.9717 16.4622 12.0569 19.4723 11.0386L18.6712 8.67042ZM16.6059 6.466L17.8877 10.2551L20.2559 9.45395L18.9741 5.66486L16.6059 6.466ZM10.5029 6.67084C12.5516 7.74849 15.1581 8.27535 18.1905 7.24957L17.3895 4.8813C15.0978 5.65658 13.2013 5.26549 11.6668 4.45829L10.5029 6.67084ZM6.2196 2.77457C6.94341 3.93405 8.43376 5.58241 10.5029 6.67084L11.6668 4.45829C10.0389 3.60198 8.86087 2.28463 8.34028 1.4507L6.2196 2.77457ZM6.05027 4.35384L7.94187 3.17298L6.61801 1.05228L4.72641 2.23313L6.05027 4.35384Z" fill="#D2C6B9"/>
</g>
</g>
<defs>
<clipPath id="clip0_160_37">
<rect width="25.6" height="32" fill="white"/>
</clipPath>
</defs>
</svg>
