<svg width="26" height="32" viewBox="0 0 26 32" fill="none" xmlns="http://www.w3.org/2000/svg">
<g clip-path="url(#clip0_160_44)">
<path fill-rule="evenodd" clip-rule="evenodd" d="M12.7742 1.57685L10.5456 1.5C10.5051 2.67428 10.0911 4.62558 8.97639 6.39193C7.89604 8.10388 6.17567 9.62713 3.42004 10.1783L4.20452 14.1006C7.07392 13.5267 9.22249 12.1833 10.7886 10.5444V30.8953H14.7886V10.5743C16.3522 12.1997 18.492 13.5302 21.3439 14.1006L22.1284 10.1783C19.3727 9.62713 17.6524 8.10388 16.572 6.39193C15.4573 4.62558 15.0433 2.67428 15.0028 1.5L12.7742 1.57685Z" fill="#202020"/>
<mask id="mask0_160_44" style="mask-type:luminance" maskUnits="userSpaceOnUse" x="1" y="0" width="23" height="33">
<path d="M23.67 0H1.92004V32.25H23.67V0Z" fill="white"/>
<path fill-rule="evenodd" clip-rule="evenodd" d="M12.7742 1.57685L10.5456 1.5C10.5051 2.67428 10.0911 4.62558 8.97639 6.39193C7.89604 8.10388 6.17567 9.62713 3.42004 10.1783L4.20452 14.1006C7.07392 13.5267 9.22249 12.1833 10.7886 10.5444V30.8953H14.7886V10.5743C16.3522 12.1997 18.492 13.5302 21.3439 14.1006L22.1284 10.1783C19.3727 9.62713 17.6524 8.10388 16.572 6.39193C15.4573 4.62558 15.0433 2.67428 15.0028 1.5L12.7742 1.57685Z" fill="#FFFEF4"/>
</mask>
<g mask="url(#mask0_160_44)">
<path d="M12.7743 1.57695L12.7312 2.8262L12.7743 2.8277L12.8173 2.8262L12.7743 1.57695ZM10.5456 1.5001L10.5887 0.250841L9.33947 0.207764L9.29639 1.45702L10.5456 1.5001ZM3.42009 10.1784L3.17494 8.95263L1.94922 9.19778L2.19437 10.4235L3.42009 10.1784ZM4.20457 14.1007L2.97882 14.3458L3.22397 15.5716L4.44969 15.3264L4.20457 14.1007ZM10.7886 10.5445H12.0386V7.42693L9.88487 9.68088L10.7886 10.5445ZM10.7886 30.8954H9.53862V32.1454H10.7886V30.8954ZM14.7886 30.8954V32.1454H16.0386V30.8954H14.7886ZM14.7886 10.5744L15.6894 9.7078L13.5386 7.47203V10.5744H14.7886ZM21.344 14.1007L21.0988 15.3264L22.3244 15.5716L22.5697 14.3458L21.344 14.1007ZM22.1284 10.1784L23.3542 10.4235L23.5992 9.19778L22.3737 8.95263L22.1284 10.1784ZM15.0029 1.5001L16.2521 1.45702L16.209 0.207764L14.9598 0.250841L15.0029 1.5001ZM12.8173 0.32769L10.5887 0.250841L10.5026 2.74935L12.7312 2.8262L12.8173 0.32769ZM9.29639 1.45702C9.26252 2.43951 8.90097 4.1694 7.91934 5.72493L10.0336 7.05913C11.2813 5.08193 11.7478 2.90923 11.7949 1.54318L9.29639 1.45702ZM7.91934 5.72493C6.99399 7.19125 5.54712 8.4782 3.17494 8.95263L3.66524 11.4041C6.80434 10.7763 8.79817 9.01673 10.0336 7.05913L7.91934 5.72493ZM2.19437 10.4235L2.97882 14.3458L5.43029 13.8555L4.64582 9.9332L2.19437 10.4235ZM4.44969 15.3264C7.58504 14.6993 9.95954 13.2215 11.6924 11.408L9.88487 9.68088C8.48552 11.1454 6.56292 12.3543 3.95942 12.875L4.44969 15.3264ZM12.0386 30.8954V10.5445H9.53862V30.8954H12.0386ZM14.7886 29.6454H10.7886V32.1454H14.7886V29.6454ZM13.5386 10.5744V30.8954H16.0386V10.5744H13.5386ZM21.5891 12.875C19.0013 12.3574 17.0864 11.16 15.6894 9.7078L13.8878 11.441C15.618 13.2396 17.9828 14.7032 21.0988 15.3264L21.5891 12.875ZM20.9027 9.9332L20.1182 13.8555L22.5697 14.3458L23.3542 10.4235L20.9027 9.9332ZM15.515 7.05913C16.7503 9.01673 18.7442 10.7763 21.8832 11.4041L22.3737 8.95263C20.0014 8.4782 18.5545 7.19125 17.6292 5.72493L15.515 7.05913ZM13.7536 1.54318C13.8007 2.90923 14.2672 5.08193 15.515 7.05913L17.6292 5.72493C16.6475 4.1694 16.286 2.43951 16.2521 1.45702L13.7536 1.54318ZM12.8173 2.8262L15.0459 2.74935L14.9598 0.250841L12.7312 0.32769L12.8173 2.8262Z" fill="#D2C6B9"/>
</g>
</g>
<defs>
<clipPath id="clip0_160_44">
<rect width="25.6" height="32" fill="white"/>
</clipPath>
</defs>
</svg>
