<svg width="100" height="100" viewBox="0 0 100 100" fill="none" xmlns="http://www.w3.org/2000/svg">
<g clip-path="url(#clip0_248_9)">
<path fill-rule="evenodd" clip-rule="evenodd" d="M11.778 42.9602L11.7781 55.9232L43.7415 55.9232L43.7416 88.3306L56.5268 88.3306L56.5269 55.9232H88.4903L88.4904 42.9602L56.5268 42.9602L56.5269 10.5528L43.7415 10.5528L43.7416 42.9602L11.778 42.9602Z" fill="#202020"/>
<mask id="mask0_248_9" style="mask-type:luminance" maskUnits="userSpaceOnUse" x="-33" y="-34" width="166" height="167">
<path d="M50.1343 -33.8917L-32.0575 49.4417L50.1343 132.775L132.326 49.4417L50.1343 -33.8917Z" fill="white"/>
<path fill-rule="evenodd" clip-rule="evenodd" d="M11.7781 42.9602L11.7782 55.9232L43.7416 55.9232L43.7417 88.3306L56.5269 88.3306L56.527 55.9232H88.4904L88.4905 42.9602L56.5269 42.9602L56.527 10.5528L43.7416 10.5528L43.7417 42.9602L11.7781 42.9602Z" fill="#FFFEF4"/>
</mask>
<g mask="url(#mask0_248_9)">
<path d="M11.7781 55.9231L9.03834 55.9232L9.03834 58.7009L11.778 58.7009L11.7781 55.9231ZM11.778 42.9602L11.778 40.1824L9.03831 40.1824L9.03834 42.9602L11.778 42.9602ZM43.7415 55.9231L46.4812 55.9231L46.4812 53.1454L43.7415 53.1454L43.7415 55.9231ZM43.7416 88.3305L41.0018 88.3306L41.0018 91.1083L43.7415 91.1083L43.7416 88.3305ZM56.5269 88.3305L56.527 91.1083L59.2667 91.1083L59.2667 88.3306L56.5269 88.3305ZM56.527 55.9231L56.527 53.1454L53.7873 53.1454L53.7873 55.9231L56.527 55.9231ZM88.4903 55.9231L88.4904 58.701L91.2301 58.701L91.2302 55.9231L88.4903 55.9231ZM88.4904 42.9602L91.2301 42.9602L91.2301 40.1824L88.4904 40.1824L88.4904 42.9602ZM56.5269 42.9602L53.7872 42.9602L53.7872 45.7379L56.5269 45.7379L56.5269 42.9602ZM56.527 10.5528L59.2667 10.5528L59.2667 7.77502L56.527 7.77502L56.527 10.5528ZM43.7415 10.5528L43.7416 7.77492L41.0018 7.77499L41.0018 10.5528L43.7415 10.5528ZM43.7416 42.9602L43.7416 45.7379L46.4813 45.7379L46.4813 42.9602L43.7416 42.9602ZM14.5178 55.9231L14.5177 42.9602L9.03834 42.9602L9.03834 55.9232L14.5178 55.9231ZM43.7415 53.1454L11.7781 53.1453L11.778 58.7009L43.7415 58.7009L43.7415 53.1454ZM46.4813 88.3305L46.4812 55.9231L41.0018 55.9231L41.0018 88.3306L46.4813 88.3305ZM56.5269 85.5527L43.7416 85.5527L43.7415 91.1083L56.527 91.1083L56.5269 85.5527ZM53.7873 55.9231L53.7872 88.3305L59.2667 88.3306L59.2667 55.9231L53.7873 55.9231ZM88.4904 53.1453L56.527 53.1454L56.527 58.7009L88.4904 58.701L88.4904 53.1453ZM85.7507 42.9602L85.7506 55.9231L91.2302 55.9231L91.2301 42.9602L85.7507 42.9602ZM56.5269 45.7379L88.4904 45.7379L88.4904 40.1824L56.527 40.1823L56.5269 45.7379ZM53.7873 10.5528L53.7872 42.9602L59.2667 42.9601L59.2667 10.5528L53.7873 10.5528ZM43.7415 13.3305L56.527 13.3305L56.527 7.77502L43.7416 7.77492L43.7415 13.3305ZM46.4813 42.9602L46.4813 10.5527L41.0018 10.5528L41.0018 42.9601L46.4813 42.9602ZM11.778 45.7379L43.7416 45.7379L43.7415 40.1823L11.778 40.1824L11.778 45.7379Z" fill="#D2C6B9"/>
</g>
</g>
<defs>
<clipPath id="clip0_248_9">
<rect width="100" height="100" fill="white"/>
</clipPath>
</defs>
</svg>
