<svg width="100" height="100" viewBox="0 0 100 100" fill="none" xmlns="http://www.w3.org/2000/svg">
<g clip-path="url(#clip0_248_9)">
<path fill-rule="evenodd" clip-rule="evenodd" d="M11.7784 42.9604L11.7785 55.9233H43.7418L43.7419 88.3307L56.5272 88.3307L56.5273 55.9233L88.4906 55.9233L88.4907 42.9604L56.5272 42.9604L56.5273 10.553H43.7418L43.7419 42.9604L11.7784 42.9604Z" fill="#202020"/>
<mask id="mask0_248_9" style="mask-type:luminance" maskUnits="userSpaceOnUse" x="-33" y="-34" width="166" height="167">
<path d="M50.1341 -33.8916L-32.0576 49.4417L50.1341 132.775L132.326 49.4417L50.1341 -33.8916Z" fill="white"/>
<path fill-rule="evenodd" clip-rule="evenodd" d="M11.7784 42.9602L11.7785 55.9232H43.7418L43.7419 88.3306L56.5272 88.3306L56.5273 55.9232L88.4906 55.9232L88.4907 42.9602L56.5272 42.9602L56.5273 10.5528H43.7418L43.7419 42.9602L11.7784 42.9602Z" fill="#FFFEF4"/>
</mask>
<g mask="url(#mask0_248_9)">
<path d="M11.7785 55.9232L9.03871 55.9233L9.03871 58.701L11.7784 58.701L11.7785 55.9232ZM11.7784 42.9602L11.7784 40.1825L9.03868 40.1824L9.03871 42.9602L11.7784 42.9602ZM43.7419 55.9232H46.4816L46.4816 53.1454L43.7419 53.1454V55.9232ZM43.742 88.3306L41.0022 88.3307L41.0022 91.1084L43.7419 91.1084L43.742 88.3306ZM56.5272 88.3306L56.5273 91.1084H59.267V88.3307L56.5272 88.3306ZM56.5273 55.9232V53.1454H53.7876V55.9232H56.5273ZM88.4907 55.9232L88.4908 58.701H91.2305L91.2306 55.9232H88.4907ZM88.4908 42.9602H91.2305V40.1825H88.4908V42.9602ZM56.5272 42.9602L53.7875 42.9602V45.738H56.5272L56.5272 42.9602ZM56.5273 10.5528H59.267V7.77508H56.5273V10.5528ZM43.7419 10.5528L43.742 7.77498L41.0021 7.77505L41.0022 10.5528L43.7419 10.5528ZM43.742 42.9602V45.738H46.4817V42.9602H43.742ZM14.5182 55.9232L14.5181 42.9602L9.03871 42.9602L9.03871 55.9233L14.5182 55.9232ZM43.7419 53.1454L11.7785 53.1454L11.7784 58.701L43.7419 58.7009L43.7419 53.1454ZM46.4817 88.3306L46.4816 55.9232L41.0022 55.9232L41.0022 88.3307L46.4817 88.3306ZM56.5272 85.5528L43.742 85.5528L43.7419 91.1084L56.5273 91.1084L56.5272 85.5528ZM53.7876 55.9232L53.7875 88.3306L59.267 88.3307L59.267 55.9232L53.7876 55.9232ZM88.4908 53.1453L56.5273 53.1454L56.5273 58.7009L88.4908 58.701V53.1453ZM85.7511 42.9602L85.751 55.9232H91.2306L91.2305 42.9602H85.7511ZM56.5272 45.738L88.4908 45.738V40.1825L56.5273 40.1824L56.5272 45.738ZM53.7876 10.5528L53.7875 42.9602L59.267 42.9601L59.267 10.5528H53.7876ZM43.7419 13.3306L56.5273 13.3306V7.77508L43.742 7.77498L43.7419 13.3306ZM46.4817 42.9602L46.4817 10.5527L41.0022 10.5528L41.0022 42.9601L46.4817 42.9602ZM11.7784 45.738L43.742 45.738L43.7419 40.1824L11.7784 40.1825L11.7784 45.738Z" fill="#D2C6B9"/>
</g>
</g>
<defs>
<clipPath id="clip0_248_9">
<rect width="100" height="100" fill="white"/>
</clipPath>
</defs>
</svg>
