<svg width="250" height="186" viewBox="0 0 250 186" fill="none" xmlns="http://www.w3.org/2000/svg">
<path d="M148.153 183.57C148.238 183.421 148.329 183.259 148.426 183.086C149.115 181.861 150.109 180.076 151.376 177.788C153.911 173.214 157.535 166.641 161.982 158.556C170.876 142.385 183.058 120.168 196.392 95.8035C215.048 61.7172 231.843 31.1313 240.655 15.0821C244.443 8.18478 246.756 3.97234 247.109 3.32079L247.121 3.29865L247.134 3.27713C247.202 3.16508 247.269 3.0542 247.335 2.9447C246.624 3.42915 245.809 3.98759 244.905 4.60973C241.506 6.94711 236.852 10.1776 231.745 13.7478C221.528 20.8907 199.196 36.442 182.016 48.2869C179.074 50.3308 175.949 52.502 172.733 54.7369C157.169 65.5501 139.459 77.8548 129.944 84.4481C129.944 84.4482 129.944 84.4484 129.943 84.4485L109.649 98.6194L128.931 141.803L128.931 141.803C134.309 153.87 139.257 164.781 142.904 172.629C144.728 176.554 146.224 179.707 147.285 181.853C147.622 182.533 147.912 183.107 148.153 183.57Z" fill="#F67B4A" stroke="#1D1D1B" stroke-width="2"/>
<path d="M221.124 11.0217C222.628 10.1566 223.953 9.39141 225.117 8.71523C224.852 8.81419 224.58 8.91531 224.303 9.01856C218.312 11.2514 209.702 14.4802 199.114 18.4636C177.937 26.4304 148.849 37.4144 116.981 49.4835C85.0682 61.5979 56.1163 72.6272 35.1542 80.6504C24.673 84.6621 16.1903 87.9218 10.3341 90.1898C8.94727 90.7268 7.70819 91.2081 6.62502 91.6305C7.96087 91.5457 9.45878 91.4386 11.0391 91.3091C15.7469 90.9168 22.6303 90.3885 27.4398 90.0194C28.1761 89.9629 28.8639 89.9101 29.4878 89.8621C30.3792 89.7935 31.6665 89.6958 33.2654 89.5743C40.1037 89.0549 52.6416 88.1026 64.2897 87.1503L64.2956 87.1498L90.2911 85.1777L153.382 49.4865C153.382 49.4864 153.382 49.4864 153.382 49.4864C190.043 28.7372 210.246 17.2802 221.124 11.0217Z" fill="#F67B4A" stroke="#1D1D1B" stroke-width="2"/>
<path d="M116.404 76.5387C116.404 76.5385 116.4 76.5383 116.391 76.5385C116.4 76.5391 116.404 76.5389 116.404 76.5387ZM116.614 76.6988C116.518 76.6568 116.415 76.6051 116.308 76.5475C116.261 76.5546 116.198 76.5666 116.116 76.5864C115.834 76.655 115.441 76.788 114.956 76.9847C113.991 77.3753 112.767 77.9724 111.521 78.6509C110.278 79.3283 109.036 80.0742 108.035 80.7552C107.534 81.0959 107.104 81.4134 106.768 81.6919C106.425 81.9772 106.231 82.1801 106.149 82.2949C105.932 82.6165 105.598 83.0001 105.144 83.1513C104.886 83.2373 104.417 83.291 104.013 82.945C104.009 82.9412 104.004 82.9374 104 82.9336C103.622 83.0773 103.095 83.3335 102.479 83.6797C101.76 84.1034 101.211 84.5239 100.888 84.8551C100.832 84.9133 100.787 84.9634 100.753 85.0051C100.799 85.1496 100.825 85.3201 100.801 85.5096C100.719 86.147 100.199 86.3992 99.9107 86.4656C99.6424 86.5275 99.3809 86.4987 99.1966 86.465C98.9917 86.4276 98.7747 86.3631 98.5549 86.2806C98.5072 86.2628 98.2982 86.2333 97.9132 86.3676C97.5633 86.4897 97.1875 86.708 96.878 86.9783C96.4291 87.424 95.9267 87.8265 95.4447 88.126C95.0038 88.4001 94.4138 88.6949 93.8432 88.6949C93.8532 88.6949 93.852 88.6954 93.84 88.7003C93.7966 88.7183 93.6119 88.7946 93.2956 89.117C92.9405 89.4791 92.5597 90.0107 92.2233 90.6266C91.8886 91.2395 91.6203 91.8945 91.4677 92.4842C91.3078 93.1018 91.3062 93.5277 91.3693 93.7487L91.3694 93.7486L91.3725 93.7603C91.5234 94.3136 91.6034 94.9365 91.4597 95.4395C91.3912 95.6791 91.1874 96.1627 90.6318 96.3376C90.4835 96.3843 90.3428 96.3987 90.2122 96.3915C90.1999 96.4381 90.1873 96.4898 90.1744 96.5471C90.0102 97.2814 89.9186 98.4804 89.9595 100.003C90.0187 100.517 89.9082 101.012 89.6798 101.407C89.5167 101.688 89.2142 102.036 88.7738 102.184C88.7232 102.274 88.6596 102.405 88.5889 102.58C88.3847 103.085 88.1772 103.822 88.0516 104.659L88.0473 104.688L88.0412 104.717C87.7805 105.955 87.425 107.389 87.1381 108.424C87.4373 108.217 87.6451 108.017 87.7626 107.859C87.7733 107.844 87.7827 107.831 87.791 107.819C87.7436 107.739 87.7007 107.654 87.6651 107.566C87.5886 107.376 87.4986 107.051 87.6079 106.687C87.7377 106.254 88.0743 105.999 88.406 105.9C88.664 105.823 88.9115 105.838 89.0988 105.87C89.1193 105.867 89.1521 105.862 89.1991 105.852C89.339 105.823 89.5363 105.768 89.7801 105.681C90.2655 105.509 90.8667 105.241 91.4485 104.908L91.4588 104.902L91.4692 104.897C93.0796 104.026 99.4161 99.7526 105.558 95.4956C108.612 93.3787 111.593 91.2828 113.877 89.644C115.02 88.8243 115.984 88.1215 116.695 87.5889C117.05 87.3223 117.337 87.1019 117.549 86.9326C117.656 86.8479 117.738 86.7795 117.799 86.7269C117.847 86.6864 117.87 86.6642 117.878 86.6567C118.261 86.223 119.062 85.6217 119.965 85.0126C120.924 84.3655 122.118 83.6311 123.356 82.9427C124.581 82.1975 125.527 81.4974 126.109 80.9459C126.318 80.7476 126.456 80.5905 126.541 80.4769C126.497 80.3783 126.457 80.2764 126.429 80.174C126.4 80.0702 126.365 79.9047 126.381 79.7111C126.398 79.5055 126.483 79.1962 126.767 78.9595C127.04 78.7317 127.342 78.7022 127.519 78.7093C127.695 78.7164 127.842 78.7617 127.938 78.7973C128.099 78.8567 128.254 78.9427 128.394 79.0309C128.414 79.0312 128.444 79.0302 128.486 79.0254C128.638 79.0083 128.86 78.951 129.147 78.836C129.719 78.6073 130.405 78.2088 131.054 77.7341C131.705 77.2576 132.261 76.7468 132.598 76.3226C132.722 76.1664 132.797 76.0471 132.838 75.9665C132.778 75.8297 132.722 75.6723 132.696 75.5073C132.67 75.3444 132.606 74.6833 133.228 74.3279C133.485 74.1808 133.737 74.1739 133.889 74.1872C134.046 74.2008 134.179 74.2424 134.274 74.2786C134.397 74.3256 134.518 74.3878 134.632 74.4553C134.658 74.4519 134.689 74.4467 134.727 74.439C134.942 74.396 135.248 74.2988 135.636 74.1412C136.405 73.8288 137.363 73.3327 138.307 72.7673C139.251 72.2022 140.144 71.5896 140.788 71.0565C141.113 70.7877 141.349 70.5607 141.493 70.3879C141.533 70.3403 141.561 70.3034 141.579 70.2769C141.664 69.2309 142.631 68.6613 143.461 68.6163C143.463 68.616 143.464 68.6156 143.465 68.6152C143.527 68.5931 143.623 68.5533 143.758 68.4907C144.025 68.3665 144.383 68.18 144.813 67.942C145.669 67.4678 146.757 66.8171 147.86 66.1227C148.963 65.4287 150.069 64.6986 150.961 64.0675C151.408 63.7516 151.794 63.4655 152.097 63.2244C152.415 62.9712 152.593 62.8051 152.662 62.7246L152.687 62.6954L152.714 62.6683C152.806 62.5767 152.954 62.4622 153.073 62.372C153.217 62.2623 153.407 62.1212 153.636 61.9542C154.095 61.6195 154.724 61.17 155.477 60.6376C156.985 59.5723 159 58.1685 161.172 56.6749L161.178 56.6708L161.184 56.6669C163.334 55.234 165.221 53.8333 166.517 52.7355C167.17 52.182 167.643 51.7302 167.923 51.4054C167.953 51.37 167.98 51.3374 168.004 51.3077C167.983 51.2397 167.966 51.1693 167.955 51.0974C167.928 50.9344 167.865 50.2734 168.487 49.9179C168.744 49.7709 168.996 49.764 169.148 49.7773C169.304 49.7909 169.438 49.8325 169.532 49.8686C169.663 49.9185 169.792 49.9856 169.912 50.0579C169.925 50.0563 169.941 50.0541 169.958 50.0512C170.121 50.0243 170.365 49.9533 170.691 49.8212C171.338 49.5593 172.166 49.1151 173.059 48.5508C174.848 47.4208 176.731 45.9129 177.771 44.6721C178.072 44.275 178.416 43.9137 178.746 43.6934C178.835 43.6341 178.946 43.5694 179.073 43.5192C179.19 43.4734 179.393 43.4103 179.641 43.4339C179.743 43.4436 179.847 43.4679 179.947 43.5081C180.073 43.4469 180.227 43.3668 180.412 43.2653C181.151 42.858 182.202 42.2024 183.407 41.3999C185.788 39.6611 192.56 34.9659 198.51 30.9095C199.471 30.2392 200.409 29.5811 201.305 28.9469C201.233 28.942 201.166 28.9344 201.105 28.9257L201.071 28.9208L201.037 28.9136C200.95 28.8948 200.744 28.8792 200.275 29.0195C199.805 29.1603 199.15 29.4328 198.2 29.9048C196.305 30.8467 193.402 32.4983 188.747 35.2101C187.506 35.9903 186.18 36.7449 185.058 37.34C183.983 37.9107 183.026 38.3725 182.519 38.5473C182.144 38.6993 181.822 38.8823 181.608 39.0383C181.565 39.0699 181.53 39.0974 181.503 39.1202C181.383 39.6091 181.019 39.9409 180.759 40.1139C180.407 40.3486 179.955 40.5021 179.485 40.5077C179.357 40.5157 179.043 40.5888 178.509 40.8001C177.992 41.0045 177.36 41.3005 176.649 41.6677C175.229 42.4012 173.55 43.3899 171.954 44.4172C170.355 45.4459 168.862 46.4975 167.808 47.3531C167.275 47.785 166.885 48.1424 166.651 48.4054C166.627 48.4325 166.605 48.4575 166.586 48.4804C166.618 48.6217 166.638 48.7716 166.636 48.9247C166.633 49.2391 166.528 49.6711 166.135 49.9741C165.775 50.251 165.365 50.2673 165.098 50.2419C164.826 50.2161 164.55 50.1335 164.288 50.0302C164.152 49.9885 163.767 49.9649 163.108 50.078C162.481 50.1856 161.754 50.39 161.061 50.6492C160.364 50.9101 159.746 51.2097 159.322 51.4893C159.126 51.6191 159.002 51.7244 158.934 51.7963C158.836 52.8273 157.878 53.3886 157.053 53.4332C157.04 53.4374 157.023 53.443 157.003 53.4502C156.902 53.4856 156.756 53.5438 156.561 53.6278C156.174 53.7947 155.647 54.0414 155.009 54.3531C153.736 54.9751 152.06 55.8369 150.262 56.7891C146.663 58.696 142.62 60.9427 140.389 62.3257C139.638 62.795 134.014 66.0599 127.968 69.4888L127.968 69.4889L127.958 69.4944C124.947 71.157 122.282 72.7702 120.423 74.0061C119.489 74.6269 118.779 75.1385 118.334 75.5055C118.301 75.5333 118.27 75.5595 118.241 75.5841C118.266 75.7103 118.277 75.8773 118.229 76.0627C118.175 76.2702 118.054 76.4731 117.859 76.6231C117.679 76.7624 117.492 76.8122 117.366 76.8302C117.139 76.8627 116.95 76.8141 116.876 76.7937C116.778 76.7666 116.688 76.7309 116.614 76.6988ZM88.7592 107.841C88.7572 107.84 88.7585 107.841 88.7627 107.841C88.7615 107.841 88.7603 107.841 88.7592 107.841ZM87.8505 107.711C87.8497 107.711 87.847 107.717 87.8446 107.728C87.85 107.716 87.8512 107.71 87.8505 107.711ZM169.839 50.0624C169.839 50.0625 169.842 50.0628 169.847 50.0628C169.842 50.0622 169.839 50.0622 169.839 50.0624ZM206.244 25.3814C206.746 25.0085 207.2 24.6663 207.599 24.3598C206.858 24.7653 206.204 25.1171 205.687 25.3869C204.691 25.9069 203.851 26.4569 203.311 26.9072C203.142 27.0482 203.019 27.1657 202.934 27.2566C202.974 27.4109 202.996 27.5808 202.981 27.7552C204.196 26.8856 205.301 26.0823 206.244 25.3814ZM202.801 27.422C202.801 27.4216 202.802 27.4206 202.803 27.4191C202.801 27.4218 202.801 27.4227 202.801 27.422ZM126.647 80.3057C126.647 80.3059 126.643 80.3125 126.639 80.3246C126.646 80.3115 126.648 80.3054 126.647 80.3057ZM132.877 75.871C132.877 75.871 132.877 75.872 132.877 75.8738C132.877 75.872 132.877 75.871 132.877 75.871ZM143.418 68.6301C143.417 68.6304 143.421 68.6296 143.428 68.6273C143.422 68.6288 143.418 68.6299 143.418 68.6301ZM166.469 48.0992L166.472 48.1071C166.471 48.1045 166.47 48.1018 166.469 48.0992ZM158.887 51.8534C158.887 51.8534 158.889 51.8502 158.893 51.8438C158.888 51.8502 158.886 51.8534 158.887 51.8534ZM157.089 53.4226C157.088 53.4227 157.087 53.423 157.086 53.4232C157.096 53.4212 157.097 53.4204 157.089 53.4226ZM117.859 74.8652C117.864 74.8715 117.869 74.878 117.874 74.8847C117.866 74.8734 117.857 74.8621 117.847 74.8508L117.859 74.8652Z" fill="#F67B4A" stroke="#1D1D1B" stroke-width="2"/>
<path d="M49.0799 92.3081L49.0798 92.3081C36.4957 93.2913 23.4804 94.2747 15.4837 94.8789C12.4502 95.1081 10.139 95.2827 8.84739 95.3821C7.53056 95.4834 6.27966 95.5845 5.15783 95.6815C5.8161 95.8507 6.52934 96.0325 7.29016 96.2254C11.5946 97.3163 17.4057 98.7535 23.3597 100.205C35.2761 103.111 47.6784 106.053 49.7912 106.416C50.0185 106.448 50.4691 106.416 51.2949 106.158C52.109 105.904 53.1912 105.463 54.6317 104.782C57.5106 103.421 61.7087 101.154 67.8563 97.6735L67.8604 97.6712C72.3755 95.1428 76.4604 92.7957 79.4144 91.0593C80.1845 90.6067 80.8767 90.1962 81.4788 89.8352C81.2641 89.8486 81.0345 89.8632 80.789 89.8793C76.651 90.1509 68.229 90.8098 51.0996 92.1501L49.0799 92.3081Z" fill="#F67B4A" stroke="#1D1D1B" stroke-width="2"/>
<path d="M55.0642 164.541C55.0642 165.852 55.0738 167.086 55.0908 168.201C55.3068 167.428 55.5406 166.588 55.7901 165.687C57.1001 160.955 58.8397 154.561 60.6925 147.647L60.6937 147.643C64.2981 134.442 66.2426 127.451 68.0103 123.453C68.9064 121.427 69.7913 120.085 70.8833 119.075C71.9664 118.073 73.1923 117.459 74.6205 116.802L74.6205 116.802L74.6325 116.796C75.3984 116.456 75.8239 116.146 76.0069 115.931C76.0178 115.918 76.0271 115.907 76.035 115.896C75.9545 115.768 75.8823 115.639 75.8253 115.514C75.7889 115.435 75.7506 115.339 75.7222 115.233C75.6979 115.143 75.659 114.969 75.685 114.761C75.714 114.529 75.8479 114.147 76.2619 113.943C76.6094 113.771 76.9295 113.844 77.0529 113.88C77.3118 113.956 77.5263 114.116 77.6523 114.217L77.6692 114.23C77.7086 114.238 77.8531 114.251 78.1841 114.144C78.6643 113.988 79.2843 113.647 79.9371 113.151C81.2706 112.137 82.4326 110.72 82.7551 109.574L82.7585 109.562L82.7622 109.55C83.8842 105.915 85.0537 101.485 85.9086 97.8514C86.3361 96.0345 86.6825 94.4273 86.9044 93.2246C86.9348 93.0601 86.9626 92.9041 86.9879 92.757C86.6929 93.0581 86.3721 93.3208 86.0636 93.5295C85.8322 93.6861 85.5908 93.8237 85.3548 93.9257C85.1762 94.0029 84.9443 94.0847 84.6925 94.1108C84.642 94.1305 84.5673 94.1619 84.4648 94.2079C84.2272 94.3147 83.89 94.4776 83.4582 94.6949C82.5973 95.1281 81.3975 95.7588 79.9429 96.5424C77.0358 98.1087 73.1328 100.274 68.9341 102.667L68.9329 102.668L54.1723 111.053L54.6119 132.243C54.6119 132.243 54.612 132.244 54.612 132.244C54.8833 144.272 55.0642 158.835 55.0642 164.541ZM76.3491 115.739C76.3492 115.739 76.3517 115.741 76.3566 115.744C76.3515 115.74 76.3491 115.739 76.3491 115.739Z" fill="#F67B4A" stroke="#1D1D1B" stroke-width="2"/>
<path d="M74.429 123.156C74.9136 123.618 75.6252 124.272 76.5377 125.094C78.435 126.803 81.1746 129.219 84.4812 132.106C91.0931 137.877 99.9588 145.52 108.857 153.136C117.755 160.751 126.683 168.338 133.419 173.997C136.788 176.827 139.606 179.173 141.597 180.798C141.709 180.89 141.819 180.979 141.925 181.066C141.878 180.954 141.829 180.839 141.779 180.721C140.784 178.388 139.341 175.071 137.596 171.098C134.106 163.152 129.415 152.591 124.697 142.042C119.98 131.494 115.237 120.961 111.646 113.071C109.85 109.126 108.344 105.844 107.272 103.553C106.751 102.438 106.335 101.563 106.04 100.96C105.88 101.067 105.699 101.188 105.499 101.323C104.621 101.913 103.381 102.759 101.868 103.798C98.8424 105.875 94.7321 108.721 90.2594 111.838C85.7859 115.001 81.6529 117.937 78.6162 120.116C77.0972 121.206 75.8552 122.104 74.9829 122.746C74.7762 122.898 74.5912 123.035 74.429 123.156ZM106.85 100.435C106.865 100.428 106.867 100.425 106.853 100.433C106.852 100.434 106.851 100.435 106.85 100.435Z" fill="#F67B4A" stroke="#1D1D1B" stroke-width="2"/>
<path d="M71.2159 128.676L71.209 128.689L71.2017 128.701C70.9457 129.14 70.7825 129.616 70.7123 130.011C70.6772 130.208 70.6693 130.363 70.6753 130.467C70.6771 130.499 70.6799 130.522 70.6822 130.536C70.9714 131.055 70.9674 131.653 70.703 132.155C70.5234 132.496 70.2449 132.759 69.9177 132.94C70.0688 133.182 70.3417 133.538 70.7963 134.023L70.8015 134.028C71.3679 134.642 71.8957 135.288 72.289 135.853C72.4846 136.134 72.6593 136.413 72.7894 136.67C72.8191 136.728 72.8526 136.797 72.8856 136.874C72.9111 136.866 72.9382 136.856 72.9669 136.845C73.6372 136.588 74.3226 136.466 74.9208 136.639C75.239 136.731 75.5462 136.912 75.7707 137.208C75.9952 137.503 76.0843 137.845 76.0843 138.165C76.0843 138.772 75.7746 139.332 75.3938 139.764C74.9944 140.217 74.4344 140.628 73.7405 140.949C73.5638 141.03 73.3871 141.106 73.2111 141.175C73.5319 141.198 73.8445 141.21 74.1351 141.21C74.8894 141.21 75.6117 141.309 76.1803 141.499C76.4595 141.592 76.7578 141.725 77.0068 141.923C77.1116 142.006 77.2336 142.122 77.3378 142.273C77.6891 142.154 78.1124 142.107 78.5295 142.286C79.1602 142.556 79.3842 143.159 79.3842 143.657C79.3842 144.181 79.2206 144.686 78.8493 145.068C78.4819 145.445 78.0024 145.606 77.5491 145.617C76.6715 145.638 75.8045 145.121 75.2855 144.293C75.2619 144.303 75.2339 144.317 75.2014 144.334C75.0701 144.405 74.899 144.521 74.6814 144.699C74.3981 144.935 74.125 145.144 73.8665 145.297C73.6247 145.44 73.2807 145.606 72.8807 145.606C72.3957 145.606 72.0179 145.368 71.7715 145.055C71.5706 144.8 71.4548 144.496 71.3771 144.242C71.2859 143.992 71.2047 143.932 71.197 143.926L71.1967 143.926C71.1937 143.924 71.1881 143.92 71.1691 143.917C71.1458 143.913 71.0927 143.908 70.9986 143.922C70.5487 143.991 69.7361 144.397 68.428 145.435L68.4229 145.439C68.3526 145.494 68.2855 145.547 68.2215 145.599C68.2503 145.608 68.2794 145.619 68.3086 145.631C68.6075 145.757 68.7937 145.983 68.8946 146.194C69.0648 146.548 69.028 146.916 68.9984 147.109C68.9283 147.564 68.7117 148.108 68.4151 148.653C68.0885 149.263 67.8796 149.729 67.766 150.09C67.6502 150.459 67.6613 150.632 67.6753 150.695C67.6755 150.696 67.6757 150.697 67.6759 150.698C67.6808 150.721 67.6896 150.762 67.8015 150.84C67.9474 150.942 68.2154 151.063 68.6874 151.186C70.1491 151.554 71.2887 152.833 71.1544 154.4C71.1321 154.756 71.1076 155.061 71.0743 155.285C71.0587 155.39 71.0332 155.537 70.9834 155.677C70.9603 155.742 70.9082 155.876 70.8016 156.011C70.6936 156.149 70.4255 156.41 69.9876 156.41C69.5839 156.41 69.3301 156.183 69.2402 156.091C69.1372 155.985 69.0744 155.878 69.0426 155.819C68.9756 155.696 68.9265 155.562 68.8914 155.457C68.8171 155.236 68.7359 154.932 68.6461 154.573C68.54 154.175 68.1149 153.794 67.1568 153.822C66.2274 153.848 65.107 154.297 64.2976 155.178C63.9338 155.583 63.6185 156.02 63.4113 156.387C63.3068 156.572 63.2426 156.717 63.2101 156.816C63.2055 156.83 63.202 156.841 63.1992 156.851C63.2577 157.253 63.2055 157.726 63.1264 158.132C63.0349 158.603 62.8793 159.124 62.6672 159.604C62.4444 160.134 61.9217 161.792 61.2493 164.074C60.5833 166.333 59.7912 169.133 59.0409 171.868C58.2904 174.605 57.5836 177.272 57.0877 179.268C56.9892 179.665 56.8993 180.034 56.8194 180.37C57.0594 180.198 57.3194 180.009 57.5974 179.805C59.244 178.595 61.4909 176.865 63.9202 174.886L63.9202 174.886L63.9255 174.882C73.457 167.222 73.9445 166.846 79.2462 162.758C79.5753 162.504 79.923 162.236 80.2926 161.95C81.5221 160.94 82.5817 159.92 83.2796 159.116C83.6261 158.717 83.8541 158.405 83.9741 158.194C83.9297 158.067 83.8922 157.931 83.8733 157.794C83.8535 157.651 83.7885 157.046 84.3236 156.664C84.5771 156.483 84.8438 156.453 85.0213 156.459C85.1948 156.466 85.3413 156.509 85.4413 156.546C85.5258 156.576 85.6087 156.615 85.6883 156.656C85.7264 156.643 85.7715 156.626 85.8241 156.605C86.1341 156.479 86.5673 156.257 87.1014 155.947C88.1613 155.333 89.5105 154.436 90.8621 153.458C92.2124 152.482 93.5431 151.441 94.5679 150.547C95.0814 150.099 95.5049 149.699 95.812 149.37C95.9453 149.227 96.0492 149.106 96.1259 149.006C96.026 148.857 95.8668 148.658 95.6417 148.415C95.1035 147.834 94.3125 147.134 93.457 146.47C92.6019 145.807 91.7209 145.21 91.014 144.824C90.656 144.629 90.3796 144.508 90.1941 144.452C90.1821 144.448 90.1712 144.445 90.1611 144.442C90.0245 144.502 89.8672 144.557 89.7025 144.584C89.5395 144.61 88.8785 144.673 88.523 144.051C88.376 143.794 88.3691 143.542 88.3824 143.39C88.396 143.234 88.4376 143.101 88.4737 143.006C88.5059 142.921 88.5451 142.838 88.5883 142.757C88.5323 142.655 88.4418 142.515 88.3057 142.338C87.9227 141.839 87.3132 141.219 86.6022 140.606C85.8952 139.996 85.1246 139.424 84.4388 139.012C84.0956 138.805 83.7901 138.649 83.5364 138.546C83.2669 138.438 83.1245 138.419 83.0854 138.419C82.049 138.419 81.0532 137.673 81.0025 136.601C80.9926 136.578 80.9728 136.535 80.9358 136.47C80.8455 136.312 80.6989 136.102 80.4951 135.847C80.0901 135.341 79.5225 134.74 78.9058 134.156C78.2898 133.572 77.6481 133.029 77.1028 132.632C76.829 132.434 76.5958 132.284 76.4134 132.186C76.2777 132.113 76.2104 132.091 76.198 132.085C75.9866 132.067 75.8139 131.996 75.717 131.952C75.5821 131.891 75.4512 131.814 75.3322 131.736C75.0928 131.58 74.8265 131.37 74.5537 131.134C74.0045 130.658 73.3609 130.013 72.7465 129.304L72.7465 129.304L72.741 129.298L71.6045 127.964L71.2159 128.676ZM69.8578 137.638C69.9619 137.653 70.0624 137.678 70.1583 137.71C69.9885 137.464 69.7875 137.288 69.6037 137.185C69.4236 137.085 69.3124 137.081 69.2666 137.085C69.168 137.139 69.0838 137.194 69.0159 137.246C69.0123 137.249 69.0089 137.251 69.0055 137.254C69.0594 137.417 69.0869 137.581 69.0926 137.743C69.3584 137.62 69.6373 137.607 69.8578 137.638ZM68.3573 139.359C68.2606 139.443 68.156 139.519 68.0445 139.586C68.0353 139.598 68.0241 139.615 68.0117 139.636C67.9767 139.697 67.9422 139.779 67.9178 139.876C67.8691 140.071 67.8769 140.259 67.9228 140.395C67.9257 140.401 67.9285 140.408 67.9313 140.415C68.0444 140.33 68.1614 140.275 68.2579 140.243C68.3649 140.208 68.4672 140.192 68.5554 140.185C68.4466 139.924 68.3833 139.645 68.3573 139.359ZM67.2004 146.581C67.2005 146.581 67.2021 146.578 67.2046 146.573C67.2015 146.578 67.2002 146.581 67.2004 146.581ZM85.54 156.7C85.5408 156.7 85.5417 156.7 85.5425 156.7C85.5137 156.702 85.5097 156.706 85.54 156.7ZM88.659 142.919C88.6596 142.919 88.6583 142.912 88.6529 142.897C88.6556 142.911 88.6583 142.919 88.659 142.919ZM68.8604 137.395C68.8605 137.395 68.8613 137.394 68.8625 137.391C68.8609 137.394 68.8602 137.395 68.8604 137.395ZM69.7697 132.641C69.7691 132.638 69.7687 132.636 69.7686 132.636C69.7686 132.636 69.7688 132.637 69.7697 132.641ZM76.9247 142.458C76.9247 142.458 76.9283 142.457 76.9356 142.454C76.9284 142.456 76.9248 142.457 76.9247 142.458ZM66.7504 145.64C66.7503 145.64 66.7532 145.641 66.7594 145.642C66.7536 145.641 66.7505 145.64 66.7504 145.64ZM63.1903 156.889C63.1903 156.889 63.1907 156.887 63.1912 156.883C63.1904 156.887 63.1902 156.889 63.1903 156.889Z" fill="#F67B4A" stroke="#1D1D1B" stroke-width="2"/>
</svg>
