<svg width="16" height="20" viewBox="0 0 16 20" fill="none" xmlns="http://www.w3.org/2000/svg">
<path d="M10.5334 7.85042C10.7095 7.82611 10.886 7.80578 11.063 7.78946C11.9324 7.71023 13.0262 7.71117 13.9577 8.02114C14.3588 8.15509 14.8136 8.60183 15.0133 9.17509C15.1792 9.65531 15.1559 10.2023 14.8069 10.7081L14.558 11.0687L14.75 11.4626C14.8017 11.5686 14.8443 11.6833 14.8789 11.803C14.9548 12.0695 14.9935 12.3764 14.9935 12.6848C14.9935 12.9933 14.9548 13.3002 14.8789 13.5668C14.8395 13.703 14.7924 13.8264 14.7347 13.9343L14.5634 14.2549L14.7089 14.588C14.8166 14.8345 14.7946 15.1689 14.6824 15.5066C14.5659 15.8414 14.3957 16.155 14.1786 16.4353L13.9276 16.7593L14.0648 17.1456C14.1 17.2445 14.1183 17.361 14.1183 17.4861C14.1183 17.7323 14.045 18.0122 13.8952 18.2743L13.8948 18.275C13.5978 18.796 12.9977 19.25 12.0859 19.25H7.63323C6.93679 19.25 6.4313 19.1577 6.01937 19.0159C5.64137 18.8774 5.28009 18.6969 4.94234 18.4777L4.94239 18.4776L4.93164 18.4709L4.87057 18.4328L4.8706 18.4327L4.86323 18.4282C4.18014 18.0121 3.43958 17.5649 1.92099 17.4044C1.26588 17.3338 0.75 16.8166 0.75 16.1834V11.0946C0.75 10.465 1.27072 9.94136 1.92345 9.76361L1.92408 9.76343C3.18857 9.4179 4.228 8.60556 4.9974 7.74654L4.9981 7.74575C5.76645 6.88547 6.27277 5.97074 6.46884 5.40763L6.4693 5.4063C6.75481 4.58132 6.96012 3.27724 7.05329 1.91726L7.05427 1.90299C7.11497 1.1464 7.82909 0.606952 8.55009 0.785699C8.55047 0.785793 8.55085 0.785887 8.55123 0.785981L8.88059 0.869275L8.88219 0.869675C9.24641 0.960927 9.53302 1.21674 9.62785 1.56532C9.88833 2.53158 10.2619 4.55418 9.7008 6.93548L9.44995 8.00011L10.5334 7.85042Z" fill="#D2C6B9" stroke="#1D1D1B" stroke-width="1.5"/>
</svg>
