<svg width="16" height="20" viewBox="0 0 16 20" fill="none" xmlns="http://www.w3.org/2000/svg">
<path d="M8.55153 19.2136L8.55088 19.2138C7.82607 19.395 7.10689 18.8489 7.05353 18.0831C6.96035 16.7233 6.75506 15.418 6.46954 14.5931L6.46886 14.5911C6.27296 14.03 5.76691 13.114 4.99788 12.2543L4.99758 12.254C4.22815 11.3949 3.18869 10.5826 1.92415 10.237L1.92352 10.2369C1.27106 10.0592 0.75 9.53568 0.75 8.90453V3.8155C0.75 3.18282 1.26673 2.6649 1.92107 2.59571C3.43859 2.4353 4.17934 1.98859 4.86271 1.57098L4.92216 1.53506L4.9327 1.52869L4.94303 1.52198C5.2807 1.30253 5.64191 1.12164 6.01988 0.982703C6.4309 0.841344 6.93613 0.75 7.63355 0.75H12.0864C12.9988 0.75 13.5985 1.20322 13.8951 1.72459L13.8951 1.72461L13.8991 1.73144C14.0386 1.97078 14.1143 2.24194 14.1189 2.51889C14.1184 2.64036 14.1003 2.75579 14.0649 2.85597L13.9288 3.24176L14.1794 3.5651C14.3964 3.84495 14.5665 4.15814 14.6831 4.49246C14.7953 4.83011 14.8172 5.16568 14.7095 5.41229L14.5658 5.74151L14.7322 6.05987C14.7936 6.17727 14.8426 6.30073 14.8784 6.42825L14.879 6.43014C14.9554 6.69897 14.9942 7.00549 14.9942 7.31548C14.9942 7.6225 14.9555 7.93039 14.8798 8.1967C14.8445 8.31742 14.8019 8.43223 14.7518 8.53425L14.5556 8.93342L14.8117 9.29704C14.9655 9.51532 15.0644 9.76743 15.1001 10.032C15.1359 10.2967 15.1073 10.566 15.0169 10.8172L15.0168 10.8172L15.0142 10.8247C14.8149 11.3976 14.3603 11.8437 13.9585 11.978C13.0263 12.2883 11.9318 12.2903 11.0629 12.211L11.061 12.2109C10.8714 12.1941 10.6965 12.174 10.5404 12.151L9.44789 11.9904L9.70125 13.0651C10.2613 15.4409 9.89014 17.4618 9.62971 18.4302C9.58041 18.6006 9.48678 18.755 9.35832 18.8775C9.22878 19.001 9.06854 19.0876 8.89423 19.1283L8.89421 19.1283L8.88359 19.1309L8.55153 19.2136Z" fill="#D2C6B9" stroke="#1D1D1B" stroke-width="1.5"/>
</svg>
