<svg width="24" height="20" viewBox="0 0 24 20" fill="none" xmlns="http://www.w3.org/2000/svg">
<path d="M8.48774 2.88866C10.0979 1.65881 12.0793 0.994068 14.1171 1.00004C16.1549 1.00601 18.1322 1.68236 19.7349 2.92162C21.3377 4.16088 22.4738 5.89198 22.9629 7.83988C23.452 9.78778 23.266 11.8408 22.4344 13.6726C21.6029 15.5045 20.1734 17.0102 18.3732 17.9506C16.573 18.8909 14.5053 19.2119 12.4986 18.8625C10.492 18.5132 8.66137 17.5136 7.29773 16.0225" stroke="black" stroke-width="1.5" stroke-linecap="round"/>
<path d="M4.49812 17.6856L12.2894 12.6243C12.9873 12.171 12.8619 11.1616 12.084 10.9699L5.48891 9.3452C4.94107 9.21024 4.36574 9.58398 4.26636 10.1394L3.07009 16.8254C2.92894 17.6141 3.80025 18.1389 4.49812 17.6856Z" fill="#D2C6B9" stroke="#1D1D1B" stroke-width="1.5"/>
</svg>
