<svg width="960" height="810" viewBox="0 0 960 810" fill="none" xmlns="http://www.w3.org/2000/svg">
<path fill-rule="evenodd" clip-rule="evenodd" d="M0 0C319.968 0 640.031 0 960 0C960 20.2484 960 780.872 960 801.12C957.625 800.729 956.172 798.768 953.4 799.563C950.912 800.276 948.122 804.759 943.8 802.678C942.164 801.89 942.666 800.276 940.2 799.563C934.333 809.565 918.856 808.041 908.4 805.015C902.015 803.166 899.045 809.213 894 807.351C891.427 806.403 890.676 802.158 888 803.457C884.582 804.603 884.455 807.124 879.6 807.351C879.144 806.621 874.628 801.325 874.2 801.12C871.099 799.644 866.326 802.659 864 800.342C863.082 799.427 861.622 795.39 861 794.111C856.994 797.22 845.562 801.446 838.2 798.784C835.465 797.795 833.968 792.528 829.8 794.111C829.2 794.89 828.6 795.669 828 796.447C823.601 796.447 819.199 796.447 814.8 796.447C811.975 797.521 806.531 800.205 804 801.12C801 800.602 798 800.081 795 799.563C790.153 801.65 790.458 807.166 781.8 807.351C779.164 802.664 776.912 805.13 771.6 803.457C771.314 803.367 770.422 801.768 769.8 801.899C768.276 802.22 767.36 805.177 764.4 804.236C761.453 803.3 759.575 798.887 757.2 798.005C754.25 796.91 750.056 799.828 747 797.226C745.46 795.915 743.94 792.011 742.2 790.996C740.201 790.735 738.199 790.477 736.2 790.217C735.401 789.178 734.599 788.14 733.8 787.101C731.27 786.207 730.891 788.889 729.6 789.438C726.6 789.438 723.6 789.438 720.6 789.438C719.144 790.017 717.811 792.457 715.2 791.774C712.228 790.999 711.178 787.397 709.2 786.322C706.2 786.583 703.2 786.841 700.2 787.101C699.416 786.85 697.146 784.927 696.6 784.765C693.605 783.877 688.835 787.03 687 787.88C684.2 787.88 681.4 787.88 678.6 787.88C674.539 789.439 668.903 789.572 664.8 790.996C661.2 791.256 657.6 791.514 654 791.774C651.509 793.036 647.599 796.335 645 797.226C639.496 799.113 628.13 790.181 624 790.996C613.739 793.021 605.766 799.862 596.4 801.899C590.914 803.093 585.954 797.68 579.6 800.342C576.246 801.747 575.173 804.107 570 804.236C569.902 804.065 552.806 790.296 552.6 790.217C549.509 789.022 541.02 791.982 536.4 790.996C534.307 790.548 535.001 787.832 532.2 788.659C531.6 789.438 531 790.217 530.4 790.996C525.6 790.996 520.8 790.996 516 790.996C515.4 792.034 514.8 793.072 514.2 794.111C511.028 796.637 505.952 795.285 502.8 794.111C499.601 794.111 496.399 794.111 493.2 794.111C489.782 792.706 476.794 786.771 474 792.553C472.59 794.932 472.897 797.877 472.2 799.563C471.492 800.187 471.191 800.166 469.8 800.342C467.16 797.036 460.321 803.127 457.8 801.899C456.035 801.039 455.944 798.954 452.4 798.784C452.4 799.303 452.4 799.823 452.4 800.342C452.851 801.177 452.761 801.078 453 802.678C451.771 803.233 450.196 803.452 448.2 803.457C447.512 802.323 446.999 801.744 446.4 800.342C442.004 804.845 426.72 811.834 417.6 808.13C415.655 807.34 415.579 803.996 412.2 805.015C411.8 805.533 411.4 806.054 411 806.572C406.001 806.312 400.999 806.054 396 805.794C394.194 806.742 389.32 811.207 385.2 809.688C384.6 808.909 384 808.13 383.4 807.351C380.4 807.091 377.4 806.833 374.4 806.572C373.8 805.794 373.2 805.015 372.6 804.236C369.377 802.607 366.382 804.211 363.6 802.678C361.63 801.592 360.455 798.817 358.2 798.005C353.201 797.745 348.199 797.486 343.2 797.226C342.059 796.785 340.964 794.524 340.2 794.111C336.8 794.111 333.4 794.111 330 794.111C328.147 797.169 322.109 802.256 319.2 803.457C313.2 803.197 307.2 802.938 301.2 802.678C300.8 803.457 300.4 804.236 300 805.015C292.975 809.143 282.647 799.884 278.4 797.226C275.351 795.318 274.008 799.634 271.2 798.784C267.193 797.572 262.308 793.07 257.4 792.553C253.031 800.463 247.12 792.938 241.2 791.774C235.324 790.619 231.245 799.205 224.4 795.669C221.242 794.036 216.715 788.799 210.6 790.996C206.815 792.355 203.074 797.407 199.2 798.784C195.702 800.027 192.148 797.204 189.6 796.447C182.824 794.433 179.48 800.571 174 798.784C171.55 797.985 170.064 795.173 168 794.111C164.897 792.514 162.472 792.985 159.6 790.996C158.8 789.957 158 788.919 157.2 787.88C152.4 787.88 147.6 787.88 142.8 787.88C141.854 787.466 140.747 785.177 139.8 784.765C137.054 783.567 120.85 783.646 118.8 784.765C117.26 785.604 114.335 788.689 112.2 789.438C109.073 790.536 107.984 788.129 105 787.88C103.818 790.351 102.268 792.061 100.8 794.111C94.1496 794.193 87.9528 793.148 82.8 792.553C81.534 795.229 80.7732 796.301 77.4 796.447C76.1844 794.796 75.6348 794.383 73.2 794.111C72.0168 796.329 71.3928 796.458 68.4 796.447C66.0084 793.383 64.0284 795.653 60 794.111C57.7764 793.26 51.3456 786.329 48 787.88C47.2152 788.243 45.5784 790.779 44.4 790.996C41.3652 791.553 39.8148 785.439 36 787.88C31.3344 790.865 27.9432 796.686 21.6 797.226C13.5336 787.911 6.2556 798.849 0 800.342C0 780.353 0 19.9883 0 0Z" fill="#1D1D1B"/>
</svg>
